<svg width="800" height="800" viewBox="0 0 800 800" fill="none" xmlns="http://www.w3.org/2000/svg">
<g clip-path="url(#clip0_380_14)">
<path d="M735.383 113.633C693.492 71.7421 638.033 48.8462 578.843 48.8462C519.653 48.8462 464.025 71.9117 422.134 113.803L400.255 135.681L378.038 113.463C336.147 71.5725 280.349 48.3374 221.159 48.3374C162.139 48.3374 106.51 71.4029 64.7887 113.124C22.8978 155.015 -0.167694 210.644 0.00190524 269.834C0.00190524 329.024 23.237 384.483 65.1279 426.373L383.635 744.88C388.044 749.29 393.98 751.664 399.747 751.664C405.513 751.664 411.449 749.459 415.859 745.05L735.044 427.052C776.935 385.161 800 329.532 800 270.342C800.17 211.152 777.274 155.524 735.383 113.633ZM702.82 394.659L551.283 545.602L399.747 696.545L97.3517 394.15C64.1103 360.908 45.7936 316.813 45.7936 269.834C45.7936 222.855 63.9407 178.759 97.1821 145.687C130.254 112.615 174.35 94.2987 221.159 94.2987C268.138 94.2987 312.403 112.615 345.645 145.857L383.974 184.186C392.963 193.175 407.379 193.175 416.367 184.186L454.358 146.196C487.599 112.955 531.864 94.6379 578.674 94.6379C625.483 94.6379 669.579 112.955 702.82 146.026C736.061 179.268 754.208 223.364 754.208 270.342C754.378 317.321 736.061 361.417 702.82 394.659Z" fill="#FF8DC6"/>
<path d="M702.82 394.659L551.283 545.602L399.747 696.545L97.3517 394.15C64.1103 360.908 45.7936 316.813 45.7936 269.834C45.7936 222.855 63.9407 178.759 97.1821 145.687C130.254 112.615 174.35 94.2987 221.159 94.2987C268.138 94.2987 312.403 112.615 345.645 145.857L383.974 184.186C392.963 193.175 407.379 193.175 416.367 184.186L454.358 146.196C487.599 112.955 531.864 94.6379 578.674 94.6379C625.483 94.6379 669.579 112.955 702.82 146.026C736.061 179.268 754.208 223.364 754.208 270.342C754.378 317.321 736.061 361.417 702.82 394.659Z" fill="#FD9ECE"/>
<path d="M703.173 395.013L703.174 395.012C736.508 361.677 754.879 317.454 754.708 270.341C754.708 223.231 736.509 179.008 703.174 145.673L703.173 145.672C669.838 112.508 625.616 94.1379 578.674 94.1379C531.731 94.1379 487.339 112.507 454.004 145.842L416.014 183.833C407.22 192.626 393.121 192.626 384.327 183.833L345.998 145.503C312.663 112.168 268.27 93.7987 221.159 93.7987C174.217 93.7987 129.994 112.168 96.8286 145.334C63.4924 178.5 45.2936 222.724 45.2936 269.834C45.2936 316.946 63.6633 361.168 96.9982 394.503L399.393 696.898L399.746 697.251L400.099 696.899L551.636 545.956L703.173 395.013ZM97.5348 146.042L97.5357 146.041C130.514 113.063 174.483 94.7987 221.159 94.7987C268.005 94.7987 312.143 113.063 345.291 146.21L383.62 184.54C392.804 193.724 407.537 193.724 416.721 184.54L454.711 146.55C487.859 113.402 531.997 95.1379 578.674 95.1379C625.349 95.1379 669.318 113.401 702.466 146.38C735.614 179.527 753.708 223.495 753.708 270.342V270.344C753.878 317.189 735.614 361.157 702.466 394.305L550.93 545.247L399.747 695.838L97.7053 393.796C64.5573 360.648 46.2936 316.68 46.2936 269.834C46.2936 222.986 64.3887 179.019 97.5348 146.042ZM399.902 136.034L400.255 136.388L400.609 136.034L422.487 114.156C464.285 72.3588 519.786 49.3462 578.843 49.3462C637.901 49.3462 693.233 72.1896 735.029 113.987C776.826 155.783 799.669 211.284 799.5 270.341V270.342C799.5 329.399 776.488 384.9 734.691 426.698C734.691 426.698 734.69 426.698 734.69 426.698L415.506 744.696L415.505 744.696C411.195 749.006 405.389 751.164 399.747 751.164C394.114 751.164 388.305 748.843 383.988 744.527L65.4815 426.02C23.6832 384.222 0.501905 328.889 0.501907 269.834L0.501903 269.832C0.332688 210.776 23.3449 155.275 65.1423 113.478C106.77 71.8501 162.271 48.8374 221.159 48.8374C280.216 48.8374 335.887 72.0192 377.684 113.817L399.902 136.034Z" stroke="#FF8DC6"/>
</g>
<defs>
<clipPath id="clip0_380_14">
<rect width="800" height="800" fill="white"/>
</clipPath>
</defs>
</svg>
