<svg xmlns="http://www.w3.org/2000/svg" xmlns:xlink="http://www.w3.org/1999/xlink" width="500" zoomAndPan="magnify" viewBox="0 0 375 374.999991" height="500" preserveAspectRatio="xMidYMid meet" version="1.0"><path fill="#fd9ece" d="M 323.695312 141.761719 C 320.4375 91.316406 278.5 51.410156 227.230469 51.410156 C 183.667969 51.410156 146.835938 80.226562 134.753906 119.839844 C 127.984375 117.277344 120.648438 115.863281 112.980469 115.863281 C 81.601562 115.863281 55.730469 139.359375 51.953125 169.710938 C 51.726562 169.707031 51.503906 169.695312 51.277344 169.695312 C 24.277344 169.695312 2.390625 191.582031 2.390625 218.582031 C 2.390625 245.582031 24.277344 267.46875 51.277344 267.46875 C 54.488281 267.46875 57.625 267.148438 60.664062 266.558594 C 75.425781 286.382812 99.039062 299.226562 125.65625 299.226562 C 148.527344 299.226562 169.183594 289.738281 183.90625 274.492188 C 194.945312 285.542969 210.203125 292.382812 227.054688 292.382812 C 250.078125 292.382812 270.109375 279.625 280.492188 260.796875 C 289.042969 265.0625 298.6875 267.464844 308.890625 267.464844 C 344.082031 267.464844 372.609375 238.9375 372.609375 203.746094 C 372.609375 173.652344 351.746094 148.4375 323.695312 141.761719 Z M 323.695312 141.761719 " fill-opacity="1" fill-rule="nonzero"/></svg>